<?xml version="1.0" standalone="no"?>
<!DOCTYPE svg PUBLIC "-//W3C//DTD SVG 20010904//EN"
 "http://www.w3.org/TR/2001/REC-SVG-20010904/DTD/svg10.dtd">
<svg version="1.0" xmlns="http://www.w3.org/2000/svg"
 width="700.000000pt" height="700.000000pt" viewBox="0 0 700.000000 700.000000"
 preserveAspectRatio="xMidYMid meet">

<g transform="translate(0.000000,700.000000) scale(0.100000,-0.100000)"
fill="#000000" stroke="none">
<path d="M3262 1451 c-25 -56 -103 -121 -207 -171 -183 -89 -340 -133 -585
-165 -138 -18 -472 -24 -625 -11 -176 14 -200 16 -225 21 -14 3 -41 7 -60 10
-19 3 -42 8 -50 10 -8 2 -29 7 -46 9 -50 9 -181 54 -236 82 -64 32 -141 109
-153 153 -8 26 -10 9 -11 -80 0 -104 -2 -119 -27 -166 -34 -67 -37 -147 -6
-210 64 -132 321 -254 629 -299 181 -26 608 -26 800 1 335 47 625 160 760 295
90 90 109 153 70 238 -22 49 -27 136 -15 245 4 37 6 67 4 67 -2 0 -10 -13 -17
-29z"/>
<path d="M3140 179 c-19 -5 -64 -16 -100 -23 -36 -8 -54 -14 -40 -15 14 0 68
10 120 23 52 13 86 24 75 24 -11 0 -36 -4 -55 -9z"/>
<path d="M1158 153 c7 -3 16 -2 19 1 4 3 -2 6 -13 5 -11 0 -14 -3 -6 -6z"/>
<path d="M1208 143 c6 -2 18 -2 25 0 6 3 1 5 -13 5 -14 0 -19 -2 -12 -5z"/>
<path d="M1258 133 c6 -2 18 -2 25 0 6 3 1 5 -13 5 -14 0 -19 -2 -12 -5z"/>
<path d="M1323 123 c9 -2 23 -2 30 0 6 3 -1 5 -18 5 -16 0 -22 -2 -12 -5z"/>
<path d="M2878 123 c7 -3 16 -2 19 1 4 3 -2 6 -13 5 -11 0 -14 -3 -6 -6z"/>
<path d="M1383 113 c9 -2 25 -2 35 0 9 3 1 5 -18 5 -19 0 -27 -2 -17 -5z"/>
<path d="M1480 99 c25 -4 59 -7 75 -7 22 0 18 3 -15 9 -25 4 -58 7 -75 7 -22
0 -18 -3 15 -9z"/>
<path d="M1665 80 c75 -8 231 -13 224 -6 -2 2 -69 6 -149 9 -96 3 -121 2 -75
-3z"/>
<path d="M2043 63 c15 -2 37 -2 50 0 12 2 0 4 -28 4 -27 0 -38 -2 -22 -4z"/>
</g>
</svg>
